<svg id="Слой_1" data-name="Слой 1" xmlns="http://www.w3.org/2000/svg" viewBox="0 0 243.69 58.36">
  <defs>
    <style>
      .cls-1 {
        fill: #000105;
      }

      .cls-2 {
        fill: #d35248;
      }

      .cls-3 {
        fill: #e9aa44;
      }

      .cls-4 {
        fill: #a45780;
      }

      .cls-5 {
        fill: #9d6daa;
      }

      .cls-6 {
        fill: #da7743;
      }

      .cls-7 {
        fill: #844756;
      }

      .cls-8 {
        fill: #756aab;
      }

      .cls-9 {
        fill: #57b6d3;
      }

      .cls-10 {
        fill: #52ae8e;
      }

      .cls-11 {
        fill: #64569b;
      }

      .cls-12 {
        fill: #8dbe5c;
      }
    </style>
  </defs>
  <title>logo</title>
  <g>
    <path class="cls-1" d="M105.05,15.9V40.35h-4.19V19.45H96.78v9.43a44.14,44.14,0,0,1-.23,5,11.43,11.43,0,0,1-.85,3.38A6.08,6.08,0,0,1,94,39.46,10.29,10.29,0,0,1,91.31,41l-1.59-2.81A6.84,6.84,0,0,0,91.36,37a4.75,4.75,0,0,0,1-1.55,7.79,7.79,0,0,0,.52-2.23q.14-1.32.14-3.29V15.9Z" transform="translate(0.03 0.03)"/>
    <path class="cls-1" d="M119.46,25l-5.67,15.32h-4V15.9h4.08V31.39H114l5.63-15.49h4.08V40.35h-4.12V25Z" transform="translate(0.03 0.03)"/>
    <path class="cls-1" d="M135,19.45v20.9H130.8V19.45h-4.35V15.9h12.89v3.55Z" transform="translate(0.03 0.03)"/>
    <path class="cls-1" d="M150.21,35l-1.93-4.53-1.66-4.29h-.19V40.35h-4.19V15.9h4.08l2.93,7,2.12,5.31h.19l2.18-5.45,2.91-6.82h4V40.35h-4.19V26.26h-.16l-1.7,4.36L152.72,35Z" transform="translate(0.03 0.03)"/>
    <path class="cls-1" d="M175.08,40.35l-1-5.09h-5q-.27,1.26-.52,2.55T168,40.35h-4.27q1.36-6.15,2.72-12.23t2.72-12.23h4.66l5.48,24.45Zm-3.65-18.8q-.39,2.53-.82,5t-.93,5.11h3.69l-1.75-10.15Z" transform="translate(0.03 0.03)"/>
    <path class="cls-1" d="M188.52,15.9q3.73,0,5.46,1.76t1.73,5.66a13,13,0,0,1-.35,3.13,5.81,5.81,0,0,1-1.2,2.41,5.71,5.71,0,0,1-2.23,1.56,9.27,9.27,0,0,1-3.48.56h-1.71v9.38h-4.19V15.9Zm-1.79,3.55v7.91h1.48a3.18,3.18,0,0,0,2.7-1,5,5,0,0,0,.76-3,4.93,4.93,0,0,0-.72-2.84,3,3,0,0,0-2.66-1Z" transform="translate(0.03 0.03)"/>
    <path class="cls-1" d="M199.31,40.35V15.9h4.19V26.23h.85a3.48,3.48,0,0,0,2.29-.74A4.85,4.85,0,0,0,208,22.86l.33-1.32q.25-1,.5-2.14t.49-2.14q.23-1,.31-1.32h3.92q-.43,1.86-.85,3.67l-.85,3.64a7.39,7.39,0,0,1-1.3,2.9,4.62,4.62,0,0,1-2,1.53v.07a4.58,4.58,0,0,1,2.29,1.58,7.79,7.79,0,0,1,1.24,2.88q.5,2.07,1,4.09t1,4.06H209.8L209,36.77q-.39-1.79-.82-3.58a5,5,0,0,0-1.3-2.74,3.3,3.3,0,0,0-2.27-.77h-1.13V40.35Z" transform="translate(0.03 0.03)"/>
    <path class="cls-1" d="M217.14,40.35V15.9h12v3.55h-7.81v6.68h6.8v3.62h-6.8v7.06h7.81v3.55Z" transform="translate(0.03 0.03)"/>
    <path class="cls-1" d="M239.31,19.45v20.9h-4.19V19.45h-4.35V15.9h12.89v3.55Z" transform="translate(0.03 0.03)"/>
  </g>
  <g>
    <path class="cls-1" d="M95.75,52.82a2.11,2.11,0,0,1-.42,1.41,1.92,1.92,0,0,1-2.51,0A1.84,1.84,0,0,1,92.41,53V49.11a3.16,3.16,0,0,1,.08-.74,1.64,1.64,0,0,1,.28-.61,1.33,1.33,0,0,1,.52-.41,1.87,1.87,0,0,1,.79-.15,2.11,2.11,0,0,1,.8.13,1.21,1.21,0,0,1,.51.38,1.59,1.59,0,0,1,.27.59,3.24,3.24,0,0,1,.08.77ZM95.1,49a1.84,1.84,0,0,0-.05-.44,1.11,1.11,0,0,0-.17-.38.85.85,0,0,0-.31-.26,1,1,0,0,0-.48-.1.9.9,0,0,0-.51.13,1,1,0,0,0-.32.33,1.44,1.44,0,0,0-.16.44,2.32,2.32,0,0,0,0,.45V53a1.48,1.48,0,0,0,.06.41,1.08,1.08,0,0,0,.18.36.87.87,0,0,0,.32.25,1.06,1.06,0,0,0,.47.1.87.87,0,0,0,.79-.36,1.57,1.57,0,0,0,.23-.87Z" transform="translate(0.03 0.03)"/>
    <path class="cls-1" d="M106.17,54.64V47.89h-1.94v6.76h-.65V47.27h3.23v7.37Z" transform="translate(0.03 0.03)"/>
    <path class="cls-1" d="M114.72,54.64V47.27h3.08v.59h-2.44v2.72h2.13v.59h-2.13v2.87h2.44v.59Z" transform="translate(0.03 0.03)"/>
    <path class="cls-1" d="M126.8,47.27a2.47,2.47,0,0,1,.92.15,1.3,1.3,0,0,1,.57.43,1.74,1.74,0,0,1,.29.68,4.56,4.56,0,0,1,0,1.75,1.79,1.79,0,0,1-.3.69,1.4,1.4,0,0,1-.59.46,2.4,2.4,0,0,1-1,.16H126v3.05h-.65V47.27ZM126,51h.74a1.65,1.65,0,0,0,.66-.11,1,1,0,0,0,.4-.32,1.22,1.22,0,0,0,.2-.5,3.61,3.61,0,0,0,.05-.64,3.77,3.77,0,0,0,0-.62,1.21,1.21,0,0,0-.19-.49,1,1,0,0,0-.4-.33,1.52,1.52,0,0,0-.66-.12H126Z" transform="translate(0.03 0.03)"/>
    <path class="cls-1" d="M136.25,54.64V47.27h3.08v.59h-2.44v2.72H139v.59h-2.13v2.87h2.44v.59Z" transform="translate(0.03 0.03)"/>
    <path class="cls-1" d="M149.42,54.64V51.17h-.51a1.88,1.88,0,0,0-.4,0,.89.89,0,0,0-.36.17,1.27,1.27,0,0,0-.3.35,1.87,1.87,0,0,0-.21.6l-.5,2.31h-.65l.53-2.4a3,3,0,0,1,.34-.93,1.11,1.11,0,0,1,.67-.51,1.12,1.12,0,0,1-.59-.49,2.74,2.74,0,0,1-.35-.91l-.49-2.14h.59l.52,2.15A1.79,1.79,0,0,0,148,50a1.22,1.22,0,0,0,.32.34,1,1,0,0,0,.36.16,1.81,1.81,0,0,0,.35,0h.43V47.27h.65v3.26h.43a1.82,1.82,0,0,0,.35,0,1,1,0,0,0,.36-.16,1.23,1.23,0,0,0,.32-.34,1.79,1.79,0,0,0,.23-.58l.52-2.15h.59l-.48,2.14a2.9,2.9,0,0,1-.37.91,1.12,1.12,0,0,1-.59.49,1.11,1.11,0,0,1,.68.51,3.05,3.05,0,0,1,.34.93l.53,2.4h-.66l-.5-2.31a2.16,2.16,0,0,0-.22-.6,1.21,1.21,0,0,0-.3-.35.89.89,0,0,0-.35-.17,1.8,1.8,0,0,0-.39,0h-.52v3.47Z" transform="translate(0.03 0.03)"/>
    <path class="cls-1" d="M163.35,54.64,163,52.86h-1.83l-.38,1.78h-.61l1.59-7.37h.66L164,54.64ZM162,48.35l-.35,1.78-.44,2.12h1.61l-.45-2.14-.34-1.76Z" transform="translate(0.03 0.03)"/>
    <path class="cls-1" d="M171.11,54.64l.46-2.3a3.11,3.11,0,0,1,.25-.78,1.13,1.13,0,0,1,.54-.52,1.13,1.13,0,0,1-.77-.6,2.52,2.52,0,0,1-.21-1.08,2.42,2.42,0,0,1,.44-1.55,1.69,1.69,0,0,1,1.4-.55h1.5v7.37h-.65V51.26h-.71a1.53,1.53,0,0,0-.35,0,.85.85,0,0,0-.34.17,1.19,1.19,0,0,0-.29.35,2.08,2.08,0,0,0-.2.61l-.43,2.2Zm.92-5.28a1.39,1.39,0,0,0,.32,1,1.26,1.26,0,0,0,.93.32h.8V47.86h-.75a1.51,1.51,0,0,0-.62.11,1,1,0,0,0-.4.31,1.29,1.29,0,0,0-.22.47A2.5,2.5,0,0,0,172,49.36Z" transform="translate(0.03 0.03)"/>
    <path class="cls-1" d="M193.85,50.78a1,1,0,0,1,.67.61,2.93,2.93,0,0,1,.19,1.1,2.37,2.37,0,0,1-.48,1.66,1.85,1.85,0,0,1-1.41.5h-1.47V47.27h1.55a2.28,2.28,0,0,1,.81.13,1.3,1.3,0,0,1,.54.37,1.47,1.47,0,0,1,.3.6,3.27,3.27,0,0,1,.09.8,2.35,2.35,0,0,1-.17,1,1.29,1.29,0,0,1-.61.61Zm.15-1.62a1.47,1.47,0,0,0-.28-1,1.16,1.16,0,0,0-.94-.33H192v2.61h.87a1,1,0,0,0,.88-.34A1.6,1.6,0,0,0,194,49.16Zm.07,3.27a1.74,1.74,0,0,0-.26-1,1,1,0,0,0-.9-.36H192v3h.87a1.31,1.31,0,0,0,.62-.13.9.9,0,0,0,.37-.35,1.53,1.53,0,0,0,.17-.52A3.94,3.94,0,0,0,194.08,52.43Z" transform="translate(0.03 0.03)"/>
    <path class="cls-1" d="M204,47.27a2.47,2.47,0,0,1,.92.15,1.3,1.3,0,0,1,.57.43,1.74,1.74,0,0,1,.29.68,4.56,4.56,0,0,1,0,1.75,1.79,1.79,0,0,1-.3.69,1.4,1.4,0,0,1-.59.46,2.4,2.4,0,0,1-1,.16h-.78v3.05h-.65V47.27ZM203.14,51h.74a1.65,1.65,0,0,0,.66-.11,1,1,0,0,0,.4-.32,1.22,1.22,0,0,0,.2-.5,3.61,3.61,0,0,0,.05-.64,3.77,3.77,0,0,0,0-.62,1.21,1.21,0,0,0-.19-.49,1,1,0,0,0-.4-.33,1.52,1.52,0,0,0-.66-.12h-.76Z" transform="translate(0.03 0.03)"/>
    <path class="cls-1" d="M213.42,54.64V47.27h3.08v.59h-2.44v2.72h2.13v.59h-2.13v2.87h2.44v.59Z" transform="translate(0.03 0.03)"/>
    <path class="cls-1" d="M228,49.07l-.15.38-.2.52-.2.52q-.1.25-.14.38l-.07.19-.14.37-.19.46-.19.46-.15.37-.07.19h-.36l-.16-.41-.23-.58-.23-.58-.16-.41-.68-1.8h0v5.55H224V47.27h.66l.19.49.26.69.26.69q.13.33.18.49l.77,2.06h0l.16-.43.23-.6L227,50l.16-.44.08-.21.16-.42.21-.53.2-.53.16-.42.08-.22h.67v7.37h-.65V49.07Z" transform="translate(0.03 0.03)"/>
    <path class="cls-1" d="M236.28,54.64l.46-2.3a3.11,3.11,0,0,1,.25-.78,1.13,1.13,0,0,1,.54-.52,1.13,1.13,0,0,1-.77-.6,2.52,2.52,0,0,1-.21-1.08,2.42,2.42,0,0,1,.44-1.55,1.69,1.69,0,0,1,1.4-.55h1.5v7.37h-.65V51.26h-.71a1.53,1.53,0,0,0-.35,0,.85.85,0,0,0-.34.17,1.19,1.19,0,0,0-.29.35,2.08,2.08,0,0,0-.2.61l-.43,2.2Zm.92-5.28a1.39,1.39,0,0,0,.32,1,1.26,1.26,0,0,0,.93.32h.8V47.86h-.75a1.51,1.51,0,0,0-.62.11,1,1,0,0,0-.4.31,1.29,1.29,0,0,0-.22.47A2.5,2.5,0,0,0,237.2,49.36Z" transform="translate(0.03 0.03)"/>
  </g>
  <path class="cls-2" d="M34,19.21c-.07,0-6.75-4.7-17.87-6l0-13A44.79,44.79,0,0,1,20.78,0C35.4,0,44.44,6.25,44.53,6.31v8.34a37.48,37.48,0,0,0-10.48,4.56h0Z" transform="translate(0.03 0.03)"/>
  <path id="_Контур_" data-name="&lt;Контур&gt;" class="cls-2" d="M44.52,6.33v8.31A36.7,36.7,0,0,0,34,19.19s-6.62-4.69-17.89-6V.2C33.68-1.33,44.52,6.33,44.52,6.33Z" transform="translate(0.03 0.03)"/>
  <path class="cls-3" d="M67.77,58.31a43.36,43.36,0,0,0-18.62-4.57,30.7,30.7,0,0,0-9.72,1.52l0-10.36a29.2,29.2,0,0,1,4.39-.31,43.35,43.35,0,0,1,18.63,4.58l0-27.2a7.09,7.09,0,0,1,.81,0c1.51,0,3.06.07,4.6.2l0,36.2Z" transform="translate(0.03 0.03)"/>
  <path id="_Контур_2" data-name="&lt;Контур&gt;" class="cls-3" d="M67.78,22.16V58.28S53.6,50.51,39.43,55.23V44.9c12.18-1.64,23,4.29,23,4.29V22A52.34,52.34,0,0,1,67.78,22.16Z" transform="translate(0.03 0.03)"/>
  <path class="cls-4" d="M39.42,32.11a32.34,32.34,0,0,0-4.64-.33H34l0-12.61a36.35,36.35,0,0,1,10.49-4.57l0,11a30.93,30.93,0,0,0-5.1,2.69v3.81Z" transform="translate(0.03 0.03)"/>
  <path id="_Контур_3" data-name="&lt;Контур&gt;" class="cls-4" d="M44.52,14.64v11a29.72,29.72,0,0,0-5.09,2.66v3.8A32.69,32.69,0,0,0,34,31.77V19.19A36.7,36.7,0,0,1,44.52,14.64Z" transform="translate(0.03 0.03)"/>
  <path class="cls-5" d="M44.49,14.64A48.54,48.54,0,0,1,57.8,12.82c1.52,0,3.07.07,4.61.2l0,8.93a48.3,48.3,0,0,0-17.9,3.69l0,0Z" transform="translate(0.03 0.03)"/>
  <path id="_Контур_4" data-name="&lt;Контур&gt;" class="cls-5" d="M62.4,13.05V22a47.68,47.68,0,0,0-17.89,3.66v-11A50.06,50.06,0,0,1,62.4,13.05Z" transform="translate(0.03 0.03)"/>
  <path class="cls-6" d="M62.39,49.21a43.32,43.32,0,0,0-18.6-4.57,32.7,32.7,0,0,0-4.36.29l0-12.84a26.61,26.61,0,0,1,5.13,1.17l0-7.63A47.44,47.44,0,0,1,62.4,21.93l0,27.3Z" transform="translate(0.03 0.03)"/>
  <path id="_Контур_5" data-name="&lt;Контур&gt;" class="cls-6" d="M62.4,22V49.18s-10.8-5.92-23-4.29V32.08a29,29,0,0,1,5.09,1.2V25.62A47.68,47.68,0,0,1,62.4,22Z" transform="translate(0.03 0.03)"/>
  <path class="cls-5" d="M34,31.77a6.12,6.12,0,0,1,.77,0,32.59,32.59,0,0,1,4.64.33l0,12.84a31.45,31.45,0,0,0-5.4,1.26h0Z" transform="translate(0.03 0.03)"/>
  <path id="_Контур_6" data-name="&lt;Контур&gt;" class="cls-5" d="M39.43,32.08V44.9A29.15,29.15,0,0,0,34,46.13V31.77A32.69,32.69,0,0,1,39.43,32.08Z" transform="translate(0.03 0.03)"/>
  <path class="cls-7" d="M44.51,33.31a29.08,29.08,0,0,0-5.09-1.2l0-3.83a28.13,28.13,0,0,1,5.11-2.69l0,7.72Z" transform="translate(0.03 0.03)"/>
  <path id="_Контур_7" data-name="&lt;Контур&gt;" class="cls-7" d="M44.52,25.62v7.66a29,29,0,0,0-5.09-1.2v-3.8A29.72,29.72,0,0,1,44.52,25.62Z" transform="translate(0.03 0.03)"/>
  <path class="cls-8" d="M28.33,28.28a39.22,39.22,0,0,0-12.17-5l0-10.13c11.17,1.27,17.87,5.93,17.93,6v12.6a41.93,41.93,0,0,0-5.72.59h0Z" transform="translate(0.03 0.03)"/>
  <path id="_Контур_8" data-name="&lt;Контур&gt;" class="cls-8" d="M34,19.19V31.77a37.82,37.82,0,0,0-5.69.56v-4a38.18,38.18,0,0,0-12.19-5V13.19C27.42,14.5,34,19.19,34,19.19Z" transform="translate(0.03 0.03)"/>
  <path class="cls-9" d="M34,46.16a29.4,29.4,0,0,0-5.69-1.28l0-12.56A35.27,35.27,0,0,1,34,31.74l0,14.43Z" transform="translate(0.03 0.03)"/>
  <path id="_Контур_9" data-name="&lt;Контур&gt;" class="cls-9" d="M34,31.77V46.13a29.38,29.38,0,0,0-5.69-1.28V32.32A37.82,37.82,0,0,1,34,31.77Z" transform="translate(0.03 0.03)"/>
  <path class="cls-9" d="M16.16,23.32A49.54,49.54,0,0,0,5.69,22l0-8.94a44.72,44.72,0,0,1,4.63-.23,51.18,51.18,0,0,1,5.87.34l0,10.17Z" transform="translate(0.03 0.03)"/>
  <path id="_Контур_10" data-name="&lt;Контур&gt;" class="cls-9" d="M16.16,13.19V23.3A49.41,49.41,0,0,0,5.7,22V13.05A51.59,51.59,0,0,1,16.16,13.19Z" transform="translate(0.03 0.03)"/>
  <path class="cls-10" d="M5.67,22a47.79,47.79,0,0,1,10.5,1.3l0,13.06a41,41,0,0,1,12.16-4l0,12.56a40.73,40.73,0,0,0-4.07-.22A43.31,43.31,0,0,0,5.71,49.21l0,0Z" transform="translate(0.03 0.03)"/>
  <path id="_Контур_11" data-name="&lt;Контур&gt;" class="cls-10" d="M28.36,32.32V44.85c-12-1.49-22.66,4.33-22.66,4.33V22A49.41,49.41,0,0,1,16.16,23.3v13A43,43,0,0,1,28.36,32.32Z" transform="translate(0.03 0.03)"/>
  <path class="cls-11" d="M16.13,23.3a38.23,38.23,0,0,1,12.24,5v4.06a44,44,0,0,0-12.21,4l0,0Z" transform="translate(0.03 0.03)"/>
  <path id="_Контур_12" data-name="&lt;Контур&gt;" class="cls-11" d="M28.36,28.28v4a43,43,0,0,0-12.19,4v-13A38.18,38.18,0,0,1,28.36,28.28Z" transform="translate(0.03 0.03)"/>
  <path class="cls-12" d="M0,22.16a44.47,44.47,0,0,1,4.61-.23H5.7l0,27.25a42.28,42.28,0,0,1,18.59-4.6,32.93,32.93,0,0,1,4,.25l0,10.4a31.9,31.9,0,0,0-9.75-1.49A43.35,43.35,0,0,0,0,58.31l0,0Z" transform="translate(0.03 0.03)"/>
  <path id="_Контур_13" data-name="&lt;Контур&gt;" class="cls-12" d="M28.36,44.85V55.23C14.18,50.51,0,58.28,0,58.28V22.16A52.21,52.21,0,0,1,5.7,22V49.18S16.31,43.36,28.36,44.85Z" transform="translate(0.03 0.03)"/>
</svg>
